<?xml version="1.0" standalone="no"?>
<!DOCTYPE svg PUBLIC "-//W3C//DTD SVG 20010904//EN"
 "http://www.w3.org/TR/2001/REC-SVG-20010904/DTD/svg10.dtd">
<svg version="1.0" xmlns="http://www.w3.org/2000/svg"
 width="460.000000pt" height="460.000000pt" viewBox="0 0 460.000000 460.000000"
 preserveAspectRatio="xMidYMid meet">
<metadata>
Created by potrace 1.14, written by Peter Selinger 2001-2017
</metadata>
<g transform="translate(0.000000,460.000000) scale(0.100000,-0.100000)"
fill="#000000" stroke="none">
<path d="M2406 4401 c-14 -8 -27 -25 -27 -36 -1 -11 -2 -450 -3 -975 -2 -1020
-3 -1000 46 -1014 13 -3 456 -6 986 -6 l963 0 26 26 c55 55 98 7 -947 1052
-529 529 -965 963 -969 963 -31 7 -53 4 -75 -10z"/>
<path d="M1675 3970 c-235 -235 -432 -435 -437 -443 -23 -43 -2 -68 419 -490
230 -230 429 -424 443 -431 49 -26 110 5 111 57 1 42 1 1634 0 1669 -1 31 -33
57 -78 62 -28 4 -63 -29 -458 -424z"/>
<path d="M552 2848 c-277 -277 -508 -513 -513 -525 -5 -13 -5 -33 0 -46 9 -24
1610 -1630 1642 -1647 10 -6 27 -10 39 -10 15 0 173 151 526 504 277 278 505
509 505 515 5 43 3 59 -10 79 -8 13 -376 386 -819 828 -719 719 -808 804 -836
804 -27 0 -87 -56 -534 -502z"/>
<path d="M2625 2185 c-16 -15 -25 -35 -25 -56 0 -27 20 -52 144 -179 124 -125
147 -154 159 -196 17 -58 13 -144 -10 -192 -9 -19 -244 -262 -525 -543 -472
-473 -508 -511 -508 -543 0 -31 18 -52 206 -240 179 -179 210 -206 237 -206
28 0 138 107 1065 1035 l1035 1034 -6 38 c-13 78 54 73 -899 73 l-849 0 -24
-25z"/>
</g>
</svg>
